<svg xmlns="http://www.w3.org/2000/svg" viewBox="0 0 655 655">
    <defs>
        <style>
            .cls-1 {
                fill: #fff;
            }

            .cls-2 {
                fill: #e7fd31;
            }
        </style>
    </defs>
    <path class="cls-1"
        d="M616,465a63.88,63.88,0,0,1-114.93,38.39l-7.76-13.43-20.6-35.69-.08-.14-19.47-33.72a96.33,96.33,0,0,0,38.91,0,94.92,94.92,0,0,0,25.45-9.14c1.94-1,3.83-2.12,5.69-3.28a96.1,96.1,0,0,0,40.35-51l43.18,74.79a0,0,0,0,1,0,0l1.46,2.52.08.15A63.55,63.55,0,0,1,616,465Z" />
    <path class="cls-1"
        d="M536.25,327.5a63.58,63.58,0,0,1-6.3,27.69s0,0,0,0l-4.73,8.19a63.89,63.89,0,0,1-106.65-1.48.35.35,0,0,0-.05-.08l-2.83-4.91-17-29.44-.26-.46-.09-.15-16.87-29.21-.1-.19L380,295.1l-.08-.15-19.15-33.16,0,0-32-55.48-.62-1.06L321.59,194l-.72-1.25s0,0,0,0a63.89,63.89,0,0,1,113.47-58l0,0,1.28,2.22L450,161.89l3.33,5.79,14,24.27,1.08,1.88,2.29,4,1.05,1.81,16.47,28.51,3.15,5.46,30.31,52.51,1.89,3.28,2.8,4.84,0,.07,4.59,8A63.69,63.69,0,0,1,536.25,327.5Z" />
    <path class="cls-1"
        d="M289.7,523.35l-2.4-4.16-2.7-4.67-15.75-27.27-.13-.24-17.14-29.7-1.29-2.22-1.08-1.86-18.39-31.86L197.69,364l-2.6-4.49-1.17-2-1.65-2.84-15.61-27,0-.07-.08-.15-17.37-30.07-.11-.19a.05.05,0,0,0,0,0l-1.68-2.92a63.9,63.9,0,0,0-108.11-1.36s0,0,0,0l-3.29,5.71h0a64,64,0,0,0-.9,56.08L50.44,364s0,0,0,0l33.12,57.38L103,455.09,121.47,487l15.89,27.51a0,0,0,0,0,0,0l5.09,8.8h0A63.75,63.75,0,0,0,195.08,551H305.67Z" />
    <path class="cls-2"
        d="M443.45,487.14a63.88,63.88,0,0,1-119,32.34l-.58-1-18.09-31.34L287.37,455.2,213.64,327.5l0-.06-18.42-31.93L142,203.44,137.73,196a63.93,63.93,0,0,1,.7-57.68l2.71-4.69A63.83,63.83,0,0,1,195.08,104H308a93.61,93.61,0,0,0-9.49,12.56c-1.44,2.24-2.78,4.56-4,6.92a95.63,95.63,0,0,0,1.43,91.29c.34.62.7,1.24,1.07,1.86L361,327.5l0,.06,18.43,31.94,53.21,92.16,4.18,7.24A63.54,63.54,0,0,1,443.45,487.14Z" />
</svg>